<?xml version="1.0" standalone="no"?>
<!DOCTYPE svg PUBLIC "-//W3C//DTD SVG 20010904//EN"
 "http://www.w3.org/TR/2001/REC-SVG-20010904/DTD/svg10.dtd">
<svg version="1.0" xmlns="http://www.w3.org/2000/svg"
 width="262.000000pt" height="262.000000pt" viewBox="0 0 262.000000 262.000000"
 preserveAspectRatio="xMidYMid meet">
<metadata>
Created by potrace 1.11, written by Peter Selinger 2001-2013
</metadata>
<g transform="translate(0.000000,262.000000) scale(0.100000,-0.100000)"
fill="#000000" stroke="none">
<path d="M1505 2179 c-3 -4 -15 -58 -26 -121 -21 -109 -30 -130 -53 -123 -6 2
-40 7 -76 10 -36 3 -94 9 -130 12 -87 9 -206 9 -255 0 -80 -16 -251 -47 -290
-53 -22 -3 -83 -15 -135 -26 -52 -11 -110 -21 -127 -21 -27 -1 -33 -5 -33 -24
0 -12 3 -24 8 -27 9 -5 62 -13 147 -21 33 -3 83 -8 110 -10 126 -12 172 -17
195 -20 14 -2 65 -6 114 -10 50 -4 97 -8 107 -10 9 -2 54 -6 100 -10 46 -4 87
-9 91 -11 4 -3 41 -5 83 -6 72 -1 76 -2 71 -22 -3 -12 -6 -26 -6 -32 0 -6 -37
-33 -82 -59 -123 -71 -150 -93 -138 -115 5 -9 8 -19 6 -21 -2 -2 -7 -51 -11
-109 -3 -58 -8 -121 -10 -140 -2 -19 -7 -89 -11 -155 -4 -66 -8 -131 -9 -145
-2 -14 -3 -38 -4 -55 l-1 -30 -13 25 c-8 14 -73 120 -145 237 l-131 212 69
206 c39 114 70 211 70 217 0 5 -7 8 -16 6 -11 -2 -37 -61 -80 -178 -35 -96
-63 -181 -64 -188 0 -7 -4 -11 -9 -8 -7 5 -131 197 -202 315 -51 85 -61 100
-74 105 -31 12 -22 -16 38 -110 35 -55 100 -156 145 -226 l81 -128 -63 -172
c-131 -357 -198 -549 -194 -553 2 -3 15 -6 28 -7 20 -2 27 4 36 32 7 19 56
163 109 320 54 157 101 296 106 309 8 21 24 0 152 -200 181 -285 172 -272 184
-257 6 7 14 45 18 83 4 39 9 77 10 86 2 9 6 40 10 70 15 133 27 226 31 249 2
14 7 54 10 90 4 36 8 68 10 72 4 6 72 3 79 -4 11 -10 89 -179 140 -301 l58
-138 -81 -273 c-45 -149 -84 -279 -87 -289 -5 -12 0 -18 20 -23 14 -3 28 -5
30 -3 2 2 38 130 80 284 43 154 83 285 89 290 6 6 12 26 12 45 1 19 13 75 26
124 l24 90 21 -35 c11 -19 48 -89 81 -155 l61 -122 -5 -98 c-10 -176 -11 -167
11 -170 30 -6 66 5 64 19 -4 29 2 77 9 77 4 0 16 -16 26 -35 13 -24 26 -35 42
-35 28 0 26 5 -27 106 -30 56 -38 79 -35 110 4 38 15 186 21 274 12 174 18
226 26 234 9 10 8 14 134 -294 48 -118 95 -221 103 -227 9 -7 24 -13 35 -13
16 0 18 5 13 27 -7 26 -147 414 -165 458 -5 11 -14 35 -21 53 -14 37 -12 36
-50 17 -46 -24 -35 -11 25 29 46 30 55 41 55 65 0 16 3 37 7 47 5 13 3 15 -7
9 -10 -6 -12 6 -6 66 3 41 8 85 10 99 2 14 7 52 11 85 12 118 16 151 25 223
14 105 13 121 -7 120 -15 -1 -266 7 -521 16 -40 2 -75 0 -77 -5z m-892 -346
c-7 -2 -21 -2 -30 0 -10 3 -4 5 12 5 17 0 24 -2 18 -5z m94 -9 c-3 -3 -12 -4
-19 -1 -8 3 -5 6 6 6 11 1 17 -2 13 -5z m111 -11 c-10 -2 -26 -2 -35 0 -10 3
-2 5 17 5 19 0 27 -2 18 -5z m242 -20 c3 -3 -38 -2 -90 2 -52 4 -97 9 -100 12
-3 3 38 2 90 -2 52 -4 97 -9 100 -12z m110 -9 c47 -4 96 -9 110 -10 14 -1 41
-3 60 -3 22 -1 30 -4 22 -9 -7 -5 -43 -5 -81 0 -122 14 -135 16 -173 17 -21 0
-38 6 -38 12 0 5 3 8 8 6 4 -3 45 -8 92 -13z m386 -366 c1 -2 16 -32 34 -66
l32 -64 -28 -96 c-15 -54 -30 -100 -33 -104 -3 -4 -39 68 -80 160 -41 92 -76
171 -79 175 -4 8 147 2 154 -5z m100 -15 c-3 -8 -6 -22 -6 -31 0 -13 -5 -11
-20 8 -26 33 -25 38 6 38 18 0 24 -5 20 -15z m178 -28 c-1 -16 -5 -95 -9 -175
-4 -80 -8 -151 -8 -157 -1 -29 -16 -6 -81 125 l-69 138 16 55 16 54 68 -5 68
-5 -1 -30z"/>
</g>
</svg>
